<?xml version="1.0" encoding="UTF-8"?>
<svg width="256" height="256" viewBox="0 0 256 256" fill="none" xmlns="http://www.w3.org/2000/svg">
  <defs>
    <linearGradient id="g" x1="0" y1="0" x2="1" y2="1">
      <stop offset="0%" stop-color="#2563eb"/>
      <stop offset="100%" stop-color="#22d3ee"/>
    </linearGradient>
  </defs>
  <rect width="256" height="256" rx="32" fill="url(#g)"/>
  <!-- Stylized CP monogram for CivilPro -->
  <g fill="white">
    <path d="M88 172c-24 0-44-20-44-44s20-44 44-44c11 0 20 3 28 9l-12 16c-4-3-9-5-16-5-14 0-26 12-26 26s12 26 26 26c7 0 12-2 16-5l12 16c-8 6-17 9-28 9z"/>
    <path d="M124 88h44c24 0 44 20 44 44s-20 44-44 44h-24v-22h24c12 0 22-10 22-22s-10-22-22-22h-22v66h-22V88z"/>
  </g>
</svg>
